<?xml version="1.0" standalone="no"?>
<!DOCTYPE svg PUBLIC "-//W3C//DTD SVG 20010904//EN"
 "http://www.w3.org/TR/2001/REC-SVG-20010904/DTD/svg10.dtd">
<svg version="1.0" xmlns="http://www.w3.org/2000/svg"
 width="248.000000pt" height="25.000000pt" viewBox="0 0 625.000000 87.000000"
 preserveAspectRatio="xMidYMid meet">

<g transform="translate(0.000000,87.000000) scale(0.100000,-0.100000)"
fill="#000000" stroke="none">
<path d="M3 440 l2 -435 3084 -3 c2173 -1 3088 1 3095 9 8 7 5 8 -9 3 -16 -6
-15 -3 5 14 14 12 21 22 15 22 -5 0 -1382 0 -3058 0 -2091 0 -3054 3 -3068 10
-18 10 -19 24 -19 375 0 350 1 365 19 375 22 11 6068 13 6109 2 l23 -7 -1
-377 c0 -230 3 -378 9 -378 5 0 11 5 13 12 3 7 7 5 11 -6 4 -10 3 -15 -3 -11
-6 3 -10 2 -10 -4 0 -5 5 -11 12 -13 7 -3 5 -7 -6 -11 -9 -4 -15 -3 -12 1 3 5
-1 9 -8 9 -8 0 -12 -6 -9 -12 2 -7 15 -12 29 -12 l24 0 0 433 0 434 -3091 0
c-2474 0 -3089 -2 -3083 -12 6 -10 4 -10 -7 -2 -14 11 -54 16 -43 5 3 -3 9 -6
12 -6 4 0 12 -4 19 -8 13 -8 6083 -10 6110 -1 14 4 15 3 4 -4 -9 -6 -10 -11
-2 -13 6 -2 -1366 -3 -3049 -2 -2146 2 -3060 0 -3060 -8 0 -5 -4 -7 -10 -4 -6
3 -10 -1 -10 -9 0 -19 -16 -21 -26 -4 -5 7 -3 8 7 3 12 -7 11 -6 0 9 -13 16
-13 18 0 16 26 -4 40 0 35 9 -4 5 -14 8 -24 7 -9 -2 -20 4 -24 13 -3 9 -5
-180 -5 -419z m6214 389 c2 -12 -2 -19 -8 -17 -6 2 -10 7 -10 11 1 4 1 15 1
24 0 22 13 8 17 -18z m-6192 -779 c-9 -14 8 -13 23 2 9 9 12 9 12 -1 0 -7 4
-10 8 -7 4 2 9 -5 9 -17 2 -15 0 -18 -6 -9 -5 8 -12 13 -17 12 -20 -3 -46 9
-39 19 3 6 8 11 11 11 3 0 2 -4 -1 -10z"/>
<path d="M4032 643 c-138 -68 -165 -315 -47 -430 95 -91 236 -60 296 64 27 57
33 186 10 243 -47 117 -161 171 -259 123z m139 -46 c100 -66 109 -280 16 -365
-35 -33 -93 -38 -137 -14 -114 63 -115 324 0 384 46 24 80 23 121 -5z"/>
<path d="M5814 643 c-41 -20 -64 -61 -64 -112 0 -54 26 -81 126 -127 41 -19
87 -46 100 -59 72 -72 -29 -173 -130 -131 -28 11 -42 26 -54 56 -13 30 -23 40
-40 40 -19 0 -22 -4 -16 -27 13 -55 35 -85 77 -104 110 -49 237 11 237 114 0
72 -26 99 -153 159 -92 43 -106 60 -93 113 9 35 63 60 109 51 36 -7 77 -45 77
-72 0 -8 11 -14 25 -14 23 0 25 3 19 28 -4 15 -13 37 -21 49 -32 49 -135 68
-199 36z"/>
<path d="M150 410 l0 -240 86 0 c109 0 155 14 204 61 92 90 90 268 -4 362 -41
42 -97 57 -205 57 l-81 0 0 -240z m227 174 c35 -26 69 -85 77 -134 9 -55 -10
-138 -40 -178 -34 -44 -78 -62 -154 -62 l-60 0 0 201 0 201 74 -4 c56 -2 82
-9 103 -24z"/>
<path d="M690 410 l0 -240 135 0 c128 0 135 1 135 20 0 19 -7 20 -110 20
l-110 0 0 95 0 95 100 0 c93 0 100 1 100 20 0 19 -7 20 -100 20 l-100 0 0 85
0 85 110 0 c103 0 110 1 110 20 0 19 -7 20 -135 20 l-135 0 0 -240z"/>
<path d="M1140 410 l0 -240 130 0 c123 0 130 1 130 20 0 19 -7 20 -105 20
l-105 0 0 220 0 220 -25 0 -25 0 0 -240z"/>
<path d="M1560 464 c0 -207 7 -236 63 -276 37 -26 128 -36 179 -19 19 6 48 25
64 42 l29 30 3 205 3 204 -25 0 -26 0 0 -193 c0 -182 -1 -194 -21 -216 -39
-42 -106 -53 -159 -26 -57 29 -60 42 -60 247 l0 188 -25 0 -25 0 0 -186z"/>
<path d="M2079 633 c6 -10 31 -49 56 -88 86 -135 84 -113 18 -223 -33 -53 -67
-109 -77 -124 l-18 -28 30 0 c27 0 35 8 88 100 33 55 61 100 64 99 5 0 64 -93
106 -166 14 -25 25 -33 47 -33 15 0 26 3 24 8 -3 4 -37 60 -76 125 l-71 118
63 102 c35 56 67 108 71 115 5 8 -1 12 -21 12 -25 0 -35 -11 -83 -90 -30 -50
-57 -90 -60 -90 -3 0 -30 41 -59 90 -48 80 -57 90 -83 90 -25 0 -27 -3 -19
-17z"/>
<path d="M2580 410 l0 -240 135 0 c128 0 135 1 135 20 0 19 -7 20 -110 20
l-110 0 0 95 0 95 100 0 c93 0 100 1 100 20 0 19 -7 20 -100 20 l-100 0 0 85
0 85 110 0 c103 0 110 1 110 20 0 19 -7 20 -135 20 l-135 0 0 -240z"/>
<path d="M3390 410 l0 -240 25 0 25 0 0 115 0 115 120 0 120 0 0 -115 0 -115
25 0 25 0 0 240 0 240 -25 0 -25 0 0 -105 0 -105 -120 0 -120 0 0 105 0 105
-25 0 -25 0 0 -240z"/>
<path d="M4420 630 c0 -18 7 -20 65 -20 l65 0 0 -220 0 -220 25 0 25 0 0 220
0 220 65 0 c58 0 65 2 65 20 0 19 -7 20 -155 20 -148 0 -155 -1 -155 -20z"/>
<path d="M4890 410 l0 -240 135 0 c128 0 135 1 135 20 0 19 -7 20 -110 20
l-110 0 0 95 0 95 100 0 c93 0 100 1 100 20 0 19 -7 20 -100 20 l-100 0 0 85
0 85 105 0 c98 0 105 1 105 20 0 19 -7 20 -130 20 l-130 0 0 -240z"/>
<path d="M5340 410 l0 -240 130 0 c123 0 130 1 130 20 0 19 -7 20 -105 20
l-105 0 0 220 0 220 -25 0 -25 0 0 -240z"/>
</g>
</svg>
